<svg xmlns="http://www.w3.org/2000/svg" viewBox="0 0 1082 308" role="img" aria-labelledby="title">
  <title>Rebellion Energy Solutions</title>
  <g fill="#1F493D">
    <path d="M126.7 270.8l-31.2-55.9H78.1l-33.6 55.9H0l78.1-126.7C65.7 130.2 57.8 110 57.8 86.9 57.8 39.1 93.8 4 143.5 4c47.5 0 82.8 33.5 82.8 79.8 0 44.3-30.5 76.6-73.7 80.7l35.8 60.3h-61.7zm16.1-220.6c-24.6 0-41.2 15.4-41.2 37.7 0 4.8.8 9.1 2.4 13L77 145.4h14l18-30h43.8l-17.6 29.2c29.3-2.6 46.3-21.5 46.3-49.7 0-26.7-15.8-44.7-38.7-44.7z"/>
    <path d="M190.3 214.2c0-42.7 31.9-76.8 76.4-76.8 46.1 0 73.9 34.2 73.9 79.7v9.9H243.9c4.2 17.4 17.9 28.2 38.9 28.2 14 0 26.4-4.7 37.8-14.5l15.3 24.4c-15.2 12.3-34.5 18.9-57.6 18.9-50.7 0-87.9-30.2-87.9-69.8zm100.8-12.7c-2-18-12.6-30.4-29.4-30.4-18.1 0-30.1 12.7-33.2 30.4h62.6z"/>
    <path d="M357.1 270.8V34.5h42.6v84.4c8-10.4 21.8-16.9 39.8-16.9 41.3 0 70.1 35.5 70.1 82.9 0 49-31 82.4-74.8 82.4-18.1 0-31.5-6-39.8-17.6v21.1h-37.9zm76.4-39.6c19.6 0 32.6-16.9 32.6-44 0-26.8-12.3-43.6-31.6-43.6-20.4 0-34.8 16.6-34.8 43.6 0 27 14.1 44 33.8 44z"/>
    <path d="M510.5 214.2c0-42.7 31.9-76.8 76.4-76.8 46.1 0 73.9 34.2 73.9 79.7v9.9h-96.8c4.2 17.4 17.9 28.2 38.9 28.2 14 0 26.4-4.7 37.8-14.5l15.3 24.4c-15.2 12.3-34.5 18.9-57.6 18.9-50.7 0-87.9-30.2-87.9-69.8zm100.8-12.7c-2-18-12.6-30.4-29.4-30.4-18.1 0-30.1 12.7-33.2 30.4h62.6z"/>
    <path d="M676.3 270.8V34.5h43.3v236.3h-43.3z"/>
    <path d="M742.7 270.8V34.5H786v236.3h-43.3z"/>
    <path d="M811.8 85.2c0-14.4 10.7-24.8 25.4-24.8 14.4 0 25.4 10.4 25.4 24.8 0 14.5-11 24.8-25.4 24.8-14.7 0-25.4-10.3-25.4-24.8zm3.8 185.6V142.5h43.3v128.3h-43.3z"/>
    <path d="M875.3 206.6c0-43.1 35.2-76.8 81.6-76.8 46.5 0 81.4 33.7 81.4 76.8 0 43.3-35 77.3-81.4 77.3-46.4 0-81.6-34-81.6-77.3zm119.4 0c0-22.1-15.1-39.2-37.8-39.2-22.6 0-38.1 17.1-38.1 39.2 0 22.3 15.5 39.6 38.1 39.6 22.7 0 37.8-17.3 37.8-39.6z"/>
    <path d="M1040.5 270.8V142.5h38.5v18.6c9.9-13.4 25.7-21.3 46.8-21.3 35.4 0 58.2 23.4 58.2 60.6v70.4h-43.3v-61.4c0-18.4-10.4-29.4-27.4-29.4-19.3 0-30.6 13.1-30.6 34.4v56.4h-42.2z" transform="translate(-106.2 0)"/>
    <path d="M2 307.2v-52.3h31.6v8.9H12.1v12.8h19.6v8.8H12.1v12.9h22.2v8.9H2zm57 0v-52.3h11l25.8 35.2v-35.2H106v52.3H95.7l-26.5-36.1v36.1H59zm75.9 0v-52.3h31.6v8.9H145v12.8h19.6v8.8H145v12.9h22.2v8.9h-32.3zm56.9 0v-52.3h18.5c12 0 19.6 7.2 19.6 17.8 0 8.1-4.7 14.2-12.1 16.6l13 17.9h-12.6L207 290.8h-5v16.4h-10.2zm10.2-25.2h7.5c6.2 0 10.1-3.3 10.1-8.7 0-5.4-3.9-8.6-10.1-8.6H202V282zm72.4 26.2c-15.9 0-27.4-11.2-27.4-26.8 0-15.7 11.7-27.5 27.5-27.5 7.9 0 14.7 2.5 20 7l-6.4 7.5c-3.8-3.3-8.2-5-13.6-5-9.9 0-17 7.6-17 17.8 0 10.1 6.9 17.6 16.7 17.6 6.1 0 11.4-2.4 14-6.7v-4.8h-11.6v-8.5h21.2v15.8c-4.6 8.4-13.6 13.6-23.4 13.6zm40.7-1v-52.3h11.1l14.7 22 14.7-22h11v52.3h-10.1v-34.3l-15.2 22.4h-.8l-15.3-22.5v34.4h-10.1zm105.2 0v-52.3h18.9c10.9 0 17.4 5.9 17.4 14.2 0 5.7-3.6 10.2-8.2 11.8 6.4 1.6 11.4 6.6 11.4 14.1 0 9.9-7.8 16.3-18.9 16.3h-20.6zm10.1-30.8h7.8c5.4 0 8.6-2.4 8.6-6.4 0-4.2-3.2-6.8-8.6-6.8h-7.8v13.2zm0 22.1h9.4c5.7 0 9-2.8 9-7.3 0-4.4-3.3-7.1-9-7.1h-9.4v14.4zm48.7-22.1c0-15.7 11.7-27.5 27.5-27.5 15.7 0 27.4 11.8 27.4 27.5 0 15.6-11.7 27.4-27.4 27.4-15.8 0-27.5-11.8-27.5-27.4zm44.6 0c0-10.2-7.1-17.8-17.1-17.8-10 0-17.1 7.6-17.1 17.8 0 10.1 7.1 17.7 17.1 17.7 10 0 17.1-7.6 17.1-17.7zm40.6 26.1c-13.3 0-21.8-8.2-21.8-21.4v-30.9h10.2v30.1c0 7.9 4.4 12.6 11.6 12.6 7.2 0 11.6-4.7 11.6-12.6v-30.1h10.1v30.9c0 13.2-8.4 21.4-21.7 21.4zm53.8-.9v-52.3h10.1v43.4h20.7v8.9h-30.8zm48.4 0v-52.3h10.1v52.3h-10.1zm42.4 0v-43.4h-15.9v-8.9h41.9v8.9h-15.9v43.4h-10.1zm45.7 0v-52.3h10.1v52.3H785zm34.7 0v-52.3h11l25.8 35.2v-35.2h10.1v52.3h-10.3l-26.5-36.1v36.1h-10.1zm93 1c-15.9 0-27.4-11.2-27.4-26.8 0-15.7 11.7-27.5 27.5-27.5 7.9 0 14.7 2.5 20 7l-6.4 7.5c-3.8-3.3-8.2-5-13.6-5-9.9 0-17 7.6-17 17.8 0 10.1 6.9 17.6 16.7 17.6 6.1 0 11.4-2.4 14-6.7v-4.8h-11.6v-8.5h21.2v15.8c-4.6 8.4-13.6 13.6-23.4 13.6z"/>
  </g>
</svg>
